<svg xmlns="http://www.w3.org/2000/svg" xmlns:xlink="http://www.w3.org/1999/xlink" viewBox="-574 359 75 75" width="26" height="26">
  <path d="M-511.49899,359h-50.00003C-568.37402,359-574,364.62601-574,371.50201v49.99698C-574,428.379-568.37402,434-561.49902,434
              h50.00003C-504.62299,434-499,428.379-499,421.49799v-49.99597C-499,364.62601-504.62399,359-511.49899,359z M-510.23599,396.5
              h-12.20102v32.81299H-536.5V396.5h-6.77698v-10.73499H-536.5V378.793c0-9.47299,4.086-15.10501,15.22498-15.10501H-508.44V375.302
              h-10.48297c-3.11102-0.005-3.49701,1.62201-3.49701,4.65201l-0.01703,5.811h14.06302L-510.23599,396.5z"></path>
</svg>